<?xml version="1.0" standalone="no"?>
<!DOCTYPE svg PUBLIC "-//W3C//DTD SVG 20010904//EN"
 "http://www.w3.org/TR/2001/REC-SVG-20010904/DTD/svg10.dtd">
<svg version="1.0" xmlns="http://www.w3.org/2000/svg"
 width="262.000000pt" height="50.000000pt" viewBox="0 0 262.000000 50.000000"
 preserveAspectRatio="xMidYMid meet">
<metadata>
Created by potrace 1.16, written by Peter Selinger 2001-2019
</metadata>
<g transform="translate(0.000000,50.000000) scale(0.100000,-0.100000)"
fill="#000000" stroke="none">
<path d="M710 315 l0 -115 110 0 110 0 18 30 18 29 18 -29 c14 -25 23 -30 57
-30 21 0 39 2 39 5 0 3 -15 29 -34 57 l-35 51 35 54 c19 29 34 56 34 58 0 3
-18 5 -40 5 -34 0 -42 -4 -56 -31 l-16 -31 -19 31 c-15 25 -25 31 -54 31 -19
0 -35 -4 -35 -8 0 -4 14 -29 30 -55 17 -26 30 -50 30 -53 0 -3 -16 -28 -35
-57 -27 -40 -35 -47 -35 -29 0 19 -5 22 -35 22 -28 0 -35 4 -35 20 0 16 7 20
30 20 27 0 30 3 30 30 0 27 -3 30 -30 30 -16 0 -30 5 -30 10 0 6 16 10 35 10
32 0 35 2 35 30 l0 30 -70 0 -70 0 0 -115z"/>
<path d="M1117 405 c-44 -45 -47 -136 -5 -182 25 -26 67 -37 114 -29 31 6 34
10 34 41 0 33 0 34 -30 23 -17 -5 -37 -7 -45 -4 -25 9 -36 51 -23 87 10 29 13
31 50 26 35 -5 40 -3 49 21 13 33 -1 42 -67 42 -42 0 -56 -5 -77 -25z"/>
<path d="M1290 315 l0 -115 70 0 c68 0 70 1 70 25 0 22 -4 25 -35 25 -28 0
-35 4 -35 20 0 16 7 20 35 20 32 0 35 2 35 30 0 28 -3 30 -35 30 -19 0 -35 5
-35 10 0 6 16 10 35 10 32 0 35 2 35 30 l0 30 -70 0 -70 0 0 -115z"/>
<path d="M1460 315 l0 -115 75 0 c73 0 75 1 75 25 0 23 -4 25 -40 25 l-40 0 0
90 0 90 -35 0 -35 0 0 -115z"/>
</g>
</svg>
